<svg width="361" height="179" viewBox="0 0 361 179" fill="none" xmlns="http://www.w3.org/2000/svg">
<path d="M23.9023 68.3793L23.9001 68.3785C19.3627 66.6284 15.4026 64.1625 12.0251 60.9799L12.0216 60.9766C8.70947 57.7943 6.11205 54.0599 4.23024 49.7771L4.22767 49.7713L4.22771 49.7713C2.40728 45.4803 1.5 40.8051 1.5 35.752C1.5 30.6989 2.40728 26.0237 4.22771 21.7327L4.2302 21.7268L4.23024 21.7269C6.11297 17.442 8.74384 13.7065 12.1211 10.5241C15.4986 7.34146 19.4587 4.87563 23.9961 3.12549C28.5386 1.37338 33.4642 0.5 38.768 0.5C44.1344 0.5 49.0607 1.37293 53.541 3.1259C58.0779 4.876 62.0065 7.34205 65.3207 10.5258C68.6965 13.7072 71.3264 17.4414 73.2087 21.7244M23.9023 68.3793L72.752 21.928M23.9023 68.3793C28.5081 70.1309 33.4969 71.004 38.864 71.004C44.1675 71.004 49.0618 70.1307 53.5416 68.3779M23.9023 68.3793L24.08 67.912C28.624 69.64 33.552 70.504 38.864 70.504C44.112 70.504 48.944 69.64 53.36 67.912M73.2087 21.7244C73.209 21.7252 73.2094 21.7261 73.2098 21.7269L72.752 21.928M73.2087 21.7244C73.2087 21.7244 73.2086 21.7243 73.2086 21.7243L72.752 21.928M73.2087 21.7244C75.0962 25.9552 76.036 30.6336 76.036 35.752C76.036 40.8076 75.0958 45.5157 73.2109 49.8706L73.2098 49.8731C71.327 54.158 68.6962 57.8935 65.3189 61.0759L65.3187 61.0761C62.0047 64.1951 58.0769 66.6283 53.5416 68.3779M72.752 21.928C74.608 26.088 75.536 30.696 75.536 35.752C75.536 40.744 74.608 45.384 72.752 49.672C70.896 53.896 68.304 57.576 64.976 60.712C61.712 63.784 57.84 66.184 53.36 67.912M53.5416 68.3779C53.5418 68.3778 53.542 68.3777 53.5422 68.3776L53.36 67.912M53.5416 68.3779C53.541 68.3781 53.5405 68.3783 53.5399 68.3785L53.36 67.912M46.8383 55.2557L46.8342 55.2574C44.405 56.254 41.7184 56.756 38.768 56.756C35.8178 56.756 33.0975 56.2541 30.6017 55.2558C28.1049 54.257 25.9232 52.8233 24.0525 50.9534C22.2458 49.0836 20.8093 46.8687 19.7447 44.3032C18.7459 41.6788 18.244 38.83 18.244 35.752C18.244 32.6078 18.7466 29.7601 19.7439 27.2027C20.8078 24.6385 22.2752 22.4239 24.1456 20.5536C26.0185 18.6806 28.1702 17.2461 30.6037 16.2474C33.0989 15.2497 35.8186 14.748 38.768 14.748C41.7182 14.748 44.4385 15.2499 46.9343 16.2482C49.431 17.2469 51.5792 18.6799 53.3845 20.5475L53.3845 20.5476L53.3904 20.5536C55.2597 22.4228 56.6944 24.6357 57.6942 27.1978L57.6941 27.1978L57.6981 27.2075C58.758 29.7636 59.292 32.6094 59.292 35.752C59.292 38.8946 58.758 41.7404 57.6981 44.2965L57.698 44.2965L57.6942 44.3062C56.6944 46.8683 55.2597 49.0812 53.3904 50.9504C51.5191 52.8218 49.3364 54.2565 46.8383 55.2557ZM96.2164 68.0712L96.2198 68.0729C99.689 69.7748 103.606 70.62 107.96 70.62C112.006 70.62 115.737 69.7054 119.141 67.8723L119.144 67.8706C120.782 66.9743 122.232 65.8812 123.492 64.5929V69.352V69.852H123.992H138.2H138.7V69.352V17.704V17.204H138.2H123.224H122.724V17.704V43.24C122.724 46.3232 122.22 48.8664 121.239 50.8911C120.256 52.8572 118.915 54.3132 117.222 55.2825C115.513 56.1965 113.55 56.66 111.32 56.66C108.1 56.66 105.655 55.7054 103.915 53.8485C102.241 51.9312 101.356 48.9086 101.356 44.68V17.704V17.204H100.856H85.88H85.38V17.704V46.888C85.38 52.2546 86.3171 56.7267 88.2235 60.2766L88.2254 60.28C90.1282 63.7577 92.7936 66.3598 96.2164 68.0712ZM151.574 69.352V69.852H152.074H167.05H167.55V69.352V44.968C167.55 40.1158 168.779 36.6608 171.133 34.4874L171.134 34.487C173.586 32.2192 176.785 31.068 180.778 31.068C181.336 31.068 181.859 31.099 182.348 31.1601L182.379 31.164H182.41C182.902 31.164 183.461 31.1948 184.088 31.2575L184.638 31.3125V30.76V16.936V16.436H184.138C179.211 16.436 174.994 17.4084 171.511 19.379C169.714 20.3627 168.17 21.5919 166.878 23.0643V17.704V17.204H166.378H152.074H151.574V17.704V69.352Z" stroke="black"/>
<mask id="path-2-outside-1_459_11336" maskUnits="userSpaceOnUse" x="0" y="99.5039" width="361" height="79" fill="black">
<rect fill="white" y="99.5039" width="361" height="79"/>
<path d="M29.36 177.208C23.984 177.208 18.832 176.504 13.904 175.096C8.976 173.624 5.008 171.736 2 169.432L7.28 157.72C10.16 159.768 13.552 161.464 17.456 162.808C21.424 164.088 25.424 164.728 29.456 164.728C32.528 164.728 34.992 164.44 36.848 163.864C38.768 163.224 40.176 162.36 41.072 161.272C41.968 160.184 42.416 158.936 42.416 157.528C42.416 155.736 41.712 154.328 40.304 153.304C38.896 152.216 37.04 151.352 34.736 150.712C32.432 150.008 29.872 149.368 27.056 148.792C24.304 148.152 21.52 147.384 18.704 146.488C15.952 145.592 13.424 144.44 11.12 143.032C8.816 141.624 6.928 139.768 5.456 137.464C4.048 135.16 3.344 132.216 3.344 128.632C3.344 124.792 4.368 121.304 6.416 118.168C8.528 114.968 11.664 112.44 15.824 110.584C20.048 108.664 25.328 107.704 31.664 107.704C35.888 107.704 40.048 108.216 44.144 109.24C48.24 110.2 51.856 111.672 54.992 113.656L50.192 125.464C47.056 123.672 43.92 122.36 40.784 121.528C37.648 120.632 34.576 120.184 31.568 120.184C28.56 120.184 26.096 120.536 24.176 121.24C22.256 121.944 20.88 122.872 20.048 124.024C19.216 125.112 18.8 126.392 18.8 127.864C18.8 129.592 19.504 131 20.912 132.088C22.32 133.112 24.176 133.944 26.48 134.584C28.784 135.224 31.312 135.864 34.064 136.504C36.88 137.144 39.664 137.88 42.416 138.712C45.232 139.544 47.792 140.664 50.096 142.072C52.4 143.48 54.256 145.336 55.664 147.64C57.136 149.944 57.872 152.856 57.872 156.376C57.872 160.152 56.816 163.608 54.704 166.744C52.592 169.88 49.424 172.408 45.2 174.328C41.04 176.248 35.76 177.208 29.36 177.208Z"/>
<path d="M93.0747 176.824C87.1867 176.824 82.0027 175.672 77.5227 173.368C73.1067 171.064 69.6827 167.928 67.2507 163.96C64.8187 159.928 63.6027 155.352 63.6027 150.232C63.6027 145.048 64.7867 140.472 67.1547 136.504C69.5867 132.472 72.8827 129.336 77.0427 127.096C81.2027 124.792 85.9067 123.64 91.1547 123.64C96.2107 123.64 100.755 124.728 104.787 126.904C108.883 129.016 112.115 132.088 114.483 136.12C116.851 140.088 118.035 144.856 118.035 150.424C118.035 151 118.003 151.672 117.939 152.44C117.875 153.144 117.811 153.816 117.747 154.456H75.7947V145.72H109.875L104.115 148.312C104.115 145.624 103.571 143.288 102.483 141.304C101.395 139.32 99.8907 137.784 97.9707 136.696C96.0507 135.544 93.8107 134.968 91.2507 134.968C88.6907 134.968 86.4187 135.544 84.4347 136.696C82.5147 137.784 81.0107 139.352 79.9227 141.4C78.8347 143.384 78.2907 145.752 78.2907 148.504V150.808C78.2907 153.624 78.8987 156.12 80.1147 158.296C81.3947 160.408 83.1547 162.04 85.3947 163.192C87.6987 164.28 90.3867 164.824 93.4587 164.824C96.2107 164.824 98.6107 164.408 100.659 163.576C102.771 162.744 104.691 161.496 106.419 159.832L114.387 168.472C112.019 171.16 109.043 173.24 105.459 174.712C101.875 176.12 97.7467 176.824 93.0747 176.824Z"/>
<path d="M128.005 176.056V124.408H142.309V139L140.293 134.776C141.829 131.128 144.293 128.376 147.685 126.52C151.077 124.6 155.205 123.64 160.069 123.64V137.464C159.429 137.4 158.853 137.368 158.341 137.368C157.829 137.304 157.285 137.272 156.709 137.272C152.613 137.272 149.285 138.456 146.725 140.824C144.229 143.128 142.981 146.744 142.981 151.672V176.056H128.005Z"/>
<path d="M184.771 176.056L163.075 124.408H178.531L196.579 168.856H188.899L207.619 124.408H222.019L200.227 176.056H184.771Z"/>
<path d="M228.13 176.056V124.408H243.106V176.056H228.13ZM235.618 117.208C232.866 117.208 230.626 116.408 228.898 114.808C227.17 113.208 226.306 111.224 226.306 108.856C226.306 106.488 227.17 104.504 228.898 102.904C230.626 101.304 232.866 100.504 235.618 100.504C238.37 100.504 240.61 101.272 242.338 102.808C244.066 104.28 244.93 106.2 244.93 108.568C244.93 111.064 244.066 113.144 242.338 114.808C240.674 116.408 238.434 117.208 235.618 117.208Z"/>
<path d="M282.637 176.824C276.749 176.824 271.565 175.672 267.085 173.368C262.669 171.064 259.245 167.928 256.813 163.96C254.381 159.928 253.165 155.352 253.165 150.232C253.165 145.048 254.349 140.472 256.717 136.504C259.149 132.472 262.445 129.336 266.605 127.096C270.765 124.792 275.469 123.64 280.717 123.64C285.773 123.64 290.317 124.728 294.349 126.904C298.445 129.016 301.677 132.088 304.045 136.12C306.413 140.088 307.597 144.856 307.597 150.424C307.597 151 307.565 151.672 307.501 152.44C307.437 153.144 307.373 153.816 307.309 154.456H265.357V145.72H299.437L293.677 148.312C293.677 145.624 293.133 143.288 292.045 141.304C290.957 139.32 289.453 137.784 287.533 136.696C285.613 135.544 283.373 134.968 280.813 134.968C278.253 134.968 275.981 135.544 273.997 136.696C272.077 137.784 270.573 139.352 269.485 141.4C268.397 143.384 267.853 145.752 267.853 148.504V150.808C267.853 153.624 268.461 156.12 269.677 158.296C270.957 160.408 272.717 162.04 274.957 163.192C277.261 164.28 279.949 164.824 283.021 164.824C285.773 164.824 288.173 164.408 290.221 163.576C292.333 162.744 294.253 161.496 295.981 159.832L303.949 168.472C301.581 171.16 298.605 173.24 295.021 174.712C291.437 176.12 287.309 176.824 282.637 176.824Z"/>
<path d="M334.944 176.824C330.528 176.824 326.272 176.312 322.176 175.288C318.144 174.2 314.944 172.856 312.576 171.256L317.568 160.504C319.936 161.976 322.72 163.192 325.92 164.152C329.184 165.048 332.384 165.496 335.52 165.496C338.976 165.496 341.408 165.08 342.816 164.248C344.288 163.416 345.024 162.264 345.024 160.792C345.024 159.576 344.448 158.68 343.296 158.104C342.208 157.464 340.736 156.984 338.88 156.664C337.024 156.344 334.976 156.024 332.736 155.704C330.56 155.384 328.352 154.968 326.112 154.456C323.872 153.88 321.824 153.048 319.968 151.96C318.112 150.872 316.608 149.4 315.456 147.544C314.368 145.688 313.824 143.288 313.824 140.344C313.824 137.08 314.752 134.2 316.608 131.704C318.528 129.208 321.28 127.256 324.864 125.848C328.448 124.376 332.736 123.64 337.728 123.64C341.248 123.64 344.832 124.024 348.48 124.792C352.128 125.56 355.168 126.68 357.6 128.152L352.608 138.808C350.112 137.336 347.584 136.344 345.024 135.832C342.528 135.256 340.096 134.968 337.728 134.968C334.4 134.968 331.968 135.416 330.432 136.312C328.896 137.208 328.128 138.36 328.128 139.768C328.128 141.048 328.672 142.008 329.76 142.648C330.912 143.288 332.416 143.8 334.272 144.184C336.128 144.568 338.144 144.92 340.32 145.24C342.56 145.496 344.8 145.912 347.04 146.488C349.28 147.064 351.296 147.896 353.088 148.984C354.944 150.008 356.448 151.448 357.6 153.304C358.752 155.096 359.328 157.464 359.328 160.408C359.328 163.608 358.368 166.456 356.448 168.952C354.528 171.384 351.744 173.304 348.096 174.712C344.512 176.12 340.128 176.824 334.944 176.824Z"/>
</mask>
<path d="M29.36 177.208C23.984 177.208 18.832 176.504 13.904 175.096C8.976 173.624 5.008 171.736 2 169.432L7.28 157.72C10.16 159.768 13.552 161.464 17.456 162.808C21.424 164.088 25.424 164.728 29.456 164.728C32.528 164.728 34.992 164.44 36.848 163.864C38.768 163.224 40.176 162.36 41.072 161.272C41.968 160.184 42.416 158.936 42.416 157.528C42.416 155.736 41.712 154.328 40.304 153.304C38.896 152.216 37.04 151.352 34.736 150.712C32.432 150.008 29.872 149.368 27.056 148.792C24.304 148.152 21.52 147.384 18.704 146.488C15.952 145.592 13.424 144.44 11.12 143.032C8.816 141.624 6.928 139.768 5.456 137.464C4.048 135.16 3.344 132.216 3.344 128.632C3.344 124.792 4.368 121.304 6.416 118.168C8.528 114.968 11.664 112.44 15.824 110.584C20.048 108.664 25.328 107.704 31.664 107.704C35.888 107.704 40.048 108.216 44.144 109.24C48.24 110.2 51.856 111.672 54.992 113.656L50.192 125.464C47.056 123.672 43.92 122.36 40.784 121.528C37.648 120.632 34.576 120.184 31.568 120.184C28.56 120.184 26.096 120.536 24.176 121.24C22.256 121.944 20.88 122.872 20.048 124.024C19.216 125.112 18.8 126.392 18.8 127.864C18.8 129.592 19.504 131 20.912 132.088C22.32 133.112 24.176 133.944 26.48 134.584C28.784 135.224 31.312 135.864 34.064 136.504C36.88 137.144 39.664 137.88 42.416 138.712C45.232 139.544 47.792 140.664 50.096 142.072C52.4 143.48 54.256 145.336 55.664 147.64C57.136 149.944 57.872 152.856 57.872 156.376C57.872 160.152 56.816 163.608 54.704 166.744C52.592 169.88 49.424 172.408 45.2 174.328C41.04 176.248 35.76 177.208 29.36 177.208Z" stroke="black" stroke-width="2" mask="url(#path-2-outside-1_459_11336)"/>
<path d="M93.0747 176.824C87.1867 176.824 82.0027 175.672 77.5227 173.368C73.1067 171.064 69.6827 167.928 67.2507 163.96C64.8187 159.928 63.6027 155.352 63.6027 150.232C63.6027 145.048 64.7867 140.472 67.1547 136.504C69.5867 132.472 72.8827 129.336 77.0427 127.096C81.2027 124.792 85.9067 123.64 91.1547 123.64C96.2107 123.64 100.755 124.728 104.787 126.904C108.883 129.016 112.115 132.088 114.483 136.12C116.851 140.088 118.035 144.856 118.035 150.424C118.035 151 118.003 151.672 117.939 152.44C117.875 153.144 117.811 153.816 117.747 154.456H75.7947V145.72H109.875L104.115 148.312C104.115 145.624 103.571 143.288 102.483 141.304C101.395 139.32 99.8907 137.784 97.9707 136.696C96.0507 135.544 93.8107 134.968 91.2507 134.968C88.6907 134.968 86.4187 135.544 84.4347 136.696C82.5147 137.784 81.0107 139.352 79.9227 141.4C78.8347 143.384 78.2907 145.752 78.2907 148.504V150.808C78.2907 153.624 78.8987 156.12 80.1147 158.296C81.3947 160.408 83.1547 162.04 85.3947 163.192C87.6987 164.28 90.3867 164.824 93.4587 164.824C96.2107 164.824 98.6107 164.408 100.659 163.576C102.771 162.744 104.691 161.496 106.419 159.832L114.387 168.472C112.019 171.16 109.043 173.24 105.459 174.712C101.875 176.12 97.7467 176.824 93.0747 176.824Z" stroke="black" stroke-width="2" mask="url(#path-2-outside-1_459_11336)"/>
<path d="M128.005 176.056V124.408H142.309V139L140.293 134.776C141.829 131.128 144.293 128.376 147.685 126.52C151.077 124.6 155.205 123.64 160.069 123.64V137.464C159.429 137.4 158.853 137.368 158.341 137.368C157.829 137.304 157.285 137.272 156.709 137.272C152.613 137.272 149.285 138.456 146.725 140.824C144.229 143.128 142.981 146.744 142.981 151.672V176.056H128.005Z" stroke="black" stroke-width="2" mask="url(#path-2-outside-1_459_11336)"/>
<path d="M184.771 176.056L163.075 124.408H178.531L196.579 168.856H188.899L207.619 124.408H222.019L200.227 176.056H184.771Z" stroke="black" stroke-width="2" mask="url(#path-2-outside-1_459_11336)"/>
<path d="M228.13 176.056V124.408H243.106V176.056H228.13ZM235.618 117.208C232.866 117.208 230.626 116.408 228.898 114.808C227.17 113.208 226.306 111.224 226.306 108.856C226.306 106.488 227.17 104.504 228.898 102.904C230.626 101.304 232.866 100.504 235.618 100.504C238.37 100.504 240.61 101.272 242.338 102.808C244.066 104.28 244.93 106.2 244.93 108.568C244.93 111.064 244.066 113.144 242.338 114.808C240.674 116.408 238.434 117.208 235.618 117.208Z" stroke="black" stroke-width="2" mask="url(#path-2-outside-1_459_11336)"/>
<path d="M282.637 176.824C276.749 176.824 271.565 175.672 267.085 173.368C262.669 171.064 259.245 167.928 256.813 163.96C254.381 159.928 253.165 155.352 253.165 150.232C253.165 145.048 254.349 140.472 256.717 136.504C259.149 132.472 262.445 129.336 266.605 127.096C270.765 124.792 275.469 123.64 280.717 123.64C285.773 123.64 290.317 124.728 294.349 126.904C298.445 129.016 301.677 132.088 304.045 136.12C306.413 140.088 307.597 144.856 307.597 150.424C307.597 151 307.565 151.672 307.501 152.44C307.437 153.144 307.373 153.816 307.309 154.456H265.357V145.72H299.437L293.677 148.312C293.677 145.624 293.133 143.288 292.045 141.304C290.957 139.32 289.453 137.784 287.533 136.696C285.613 135.544 283.373 134.968 280.813 134.968C278.253 134.968 275.981 135.544 273.997 136.696C272.077 137.784 270.573 139.352 269.485 141.4C268.397 143.384 267.853 145.752 267.853 148.504V150.808C267.853 153.624 268.461 156.12 269.677 158.296C270.957 160.408 272.717 162.04 274.957 163.192C277.261 164.28 279.949 164.824 283.021 164.824C285.773 164.824 288.173 164.408 290.221 163.576C292.333 162.744 294.253 161.496 295.981 159.832L303.949 168.472C301.581 171.16 298.605 173.24 295.021 174.712C291.437 176.12 287.309 176.824 282.637 176.824Z" stroke="black" stroke-width="2" mask="url(#path-2-outside-1_459_11336)"/>
<path d="M334.944 176.824C330.528 176.824 326.272 176.312 322.176 175.288C318.144 174.2 314.944 172.856 312.576 171.256L317.568 160.504C319.936 161.976 322.72 163.192 325.92 164.152C329.184 165.048 332.384 165.496 335.52 165.496C338.976 165.496 341.408 165.08 342.816 164.248C344.288 163.416 345.024 162.264 345.024 160.792C345.024 159.576 344.448 158.68 343.296 158.104C342.208 157.464 340.736 156.984 338.88 156.664C337.024 156.344 334.976 156.024 332.736 155.704C330.56 155.384 328.352 154.968 326.112 154.456C323.872 153.88 321.824 153.048 319.968 151.96C318.112 150.872 316.608 149.4 315.456 147.544C314.368 145.688 313.824 143.288 313.824 140.344C313.824 137.08 314.752 134.2 316.608 131.704C318.528 129.208 321.28 127.256 324.864 125.848C328.448 124.376 332.736 123.64 337.728 123.64C341.248 123.64 344.832 124.024 348.48 124.792C352.128 125.56 355.168 126.68 357.6 128.152L352.608 138.808C350.112 137.336 347.584 136.344 345.024 135.832C342.528 135.256 340.096 134.968 337.728 134.968C334.4 134.968 331.968 135.416 330.432 136.312C328.896 137.208 328.128 138.36 328.128 139.768C328.128 141.048 328.672 142.008 329.76 142.648C330.912 143.288 332.416 143.8 334.272 144.184C336.128 144.568 338.144 144.92 340.32 145.24C342.56 145.496 344.8 145.912 347.04 146.488C349.28 147.064 351.296 147.896 353.088 148.984C354.944 150.008 356.448 151.448 357.6 153.304C358.752 155.096 359.328 157.464 359.328 160.408C359.328 163.608 358.368 166.456 356.448 168.952C354.528 171.384 351.744 173.304 348.096 174.712C344.512 176.12 340.128 176.824 334.944 176.824Z" stroke="black" stroke-width="2" mask="url(#path-2-outside-1_459_11336)"/>
</svg>
